# xmcd
#
# Track frame offsets:
#	150
#	20215
#	35631
#	56315
#	68448
#	81414
#	94814
#	114060
#
# Disc length: 1787 seconds
#
# Revision: 1
# Processed by: cddbd v1.5.2PL0 Copyright (c) Steve Scherf et al.
# Submitted via: audiograbber 1.83.01
#
DISCID=5e06f908
DTITLE=The McKrells - Traveling Man
DYEAR=1900
DGENRE=
TTITLE0=Traveling Man
TTITLE1=The Bold Fenian Men
TTITLE2=Shores of America
TTITLE3=Christmas Day
TTITLE4=Like Two Peas in a Pod
TTITLE5=Ronnies Golden Mustang
TTITLE6=The Hotel Marquis de Lafayette
TTITLE7=Tunnel Tigers
EXTD=
EXTT0=
EXTT1=
EXTT2=
EXTT3=
EXTT4=
EXTT5=
EXTT6=
EXTT7=
PLAYORDER=
